{
  "accessors": [
    {
      "bufferView": 2,
      "componentType": 5126,
      "count": 1503,
      "max": [
        16.181808471679688,
        91.06221771240234,
        16.18179702758789
      ],
      "min": [
        -16.181793212890625,
        -125.0047378540039,
        -16.181808471679688
      ],
      "type": "VEC3"
    },
    {
      "bufferView": 2,
      "byteOffset": 18036,
      "componentType": 5126,
      "count": 1503,
      "max": [
        1.0,
        1.0,
        1.0
      ],
      "min": [
        -1.0,
        -1.0,
        -1.0
      ],
      "type": "VEC3"
    },
    {
      "bufferView": 3,
      "componentType": 5126,
      "count": 1503,
      "max": [
        0.9999992251396179,
        1.0,
        0.999999463558197,
        1.0
      ],
      "min": [
        -0.9999828934669495,
        -1.0,
        -1.0,
        1.0
      ],
      "type": "VEC4"
    },
    {
      "bufferView": 1,
      "componentType": 5126,
      "count": 1503,
      "max": [
        1.0,
        0.9937639832496643
      ],
      "min": [
        0.0,
        0.0
      ],
      "type": "VEC2"
    },
    {
      "bufferView": 0,
      "componentType": 5125,
      "count": 5316,
      "type": "SCALAR"
    },
    {
      "bufferView": 2,
      "byteOffset": 36072,
      "componentType": 5126,
      "count": 16,
      "max": [
        9.165468215942383,
        107.7872543334961,
        9.165451049804688
      ],
      "min": [
        -9.165467262268066,
        90.81855010986328,
        -9.165485382080078
      ],
      "type": "VEC3"
    },
    {
      "bufferView": 2,
      "byteOffset": 36264,
      "componentType": 5126,
      "count": 16,
      "max": [
        0.9697074890136719,
        -0.24426887929439545,
        0.9697075486183167
      ],
      "min": [
        -0.9697074890136719,
        -0.25946298241615295,
        -0.9697074890136719
      ],
      "type": "VEC3"
    },
    {
      "bufferView": 3,
      "byteOffset": 24048,
      "componentType": 5126,
      "count": 16,
      "max": [
        1.0,
        0.003000865690410137,
        1.0,
        1.0
      ],
      "min": [
        -1.0,
        -0.002999592339619994,
        -1.0,
        1.0
      ],
      "type": "VEC4"
    },
    {
      "bufferView": 1,
      "byteOffset": 12024,
      "componentType": 5126,
      "count": 16,
      "max": [
        0.8895909786224365,
        0.9680430293083191
      ],
      "min": [
        0.10529100149869919,
        0.022348999977111816
      ],
      "type": "VEC2"
    },
    {
      "bufferView": 0,
      "byteOffset": 21264,
      "componentType": 5125,
      "count": 24,
      "type": "SCALAR"
    },
    {
      "bufferView": 2,
      "byteOffset": 36456,
      "componentType": 5126,
      "count": 984,
      "max": [
        10.802128791809082,
        125.89564514160156,
        10.802109718322754
      ],
      "min": [
        -10.802129745483398,
        90.81855010986328,
        -10.802149772644043
      ],
      "type": "VEC3"
    },
    {
      "bufferView": 2,
      "byteOffset": 48264,
      "componentType": 5126,
      "count": 984,
      "max": [
        1.0,
        1.0,
        1.0
      ],
      "min": [
        -1.0,
        -1.0,
        -1.0
      ],
      "type": "VEC3"
    },
    {
      "bufferView": 3,
      "byteOffset": 24304,
      "componentType": 5126,
      "count": 984,
      "max": [
        1.0,
        1.0,
        1.0,
        1.0
      ],
      "min": [
        -1.0,
        -1.0,
        -1.0,
        -1.0
      ],
      "type": "VEC4"
    },
    {
      "bufferView": 1,
      "byteOffset": 12152,
      "componentType": 5126,
      "count": 984,
      "max": [
        1.0,
        0.9179189801216125
      ],
      "min": [
        0.0,
        0.0
      ],
      "type": "VEC2"
    },
    {
      "bufferView": 0,
      "byteOffset": 21360,
      "componentType": 5125,
      "count": 3156,
      "type": "SCALAR"
    }
  ],
  "asset": {
    "extras": {
      "author": "wolfgar74 (https://sketchfab.com/wolfgar74)",
      "license": "CC-BY-4.0 (http://creativecommons.org/licenses/by/4.0/)",
      "source": "https://sketchfab.com/3d-models/old-street-lamp-2a3702c1fa62426998715fc11ff84024",
      "title": "Old Street Lamp"
    },
    "generator": "Sketchfab-12.5.0",
    "version": "2.0"
  },
  "bufferViews": [
    {
      "buffer": 0,
      "byteLength": 33984,
      "name": "floatBufferViews",
      "target": 34963
    },
    {
      "buffer": 0,
      "byteLength": 20024,
      "byteOffset": 33984,
      "byteStride": 8,
      "name": "floatBufferViews",
      "target": 34962
    },
    {
      "buffer": 0,
      "byteLength": 60072,
      "byteOffset": 54008,
      "byteStride": 12,
      "name": "floatBufferViews",
      "target": 34962
    },
    {
      "buffer": 0,
      "byteLength": 40048,
      "byteOffset": 114080,
      "byteStride": 16,
      "name": "floatBufferViews",
      "target": 34962
    }
  ],
  "buffers": [
    {
      "byteLength": 154128,
      "uri": "scene.bin"
    }
  ],
  "images": [
    {
      "uri": "textures/StreepLampTop_baseColor.jpeg"
    },
    {
      "uri": "textures/StreepLampTop_metallicRoughness.png"
    },
    {
      "uri": "textures/StreepLampTop_normal.png"
    },
    {
      "uri": "textures/WhiteSidingWindow_baseColor.png"
    },
    {
      "uri": "textures/WhiteSidingWindow_metallicRoughness.png"
    },
    {
      "uri": "textures/WhiteSidingWindow_emissive.jpeg"
    },
    {
      "uri": "textures/WhiteSidingWindow_normal.png"
    },
    {
      "uri": "textures/OldStreetLight_baseColor.jpeg"
    },
    {
      "uri": "textures/OldStreetLight_metallicRoughness.png"
    },
    {
      "uri": "textures/OldStreetLight_normal.png"
    }
  ],
  "materials": [
    {
      "doubleSided": true,
      "name": "StreepLampTop",
      "normalTexture": {
        "index": 2
      },
      "pbrMetallicRoughness": {
        "baseColorTexture": {
          "index": 0
        },
        "metallicRoughnessTexture": {
          "index": 1
        },
        "roughnessFactor": 0.5489256334020393
      }
    },
    {
      "alphaMode": "BLEND",
      "doubleSided": true,
      "emissiveFactor": [
        1.0,
        1.0,
        1.0
      ],
      "emissiveTexture": {
        "index": 5
      },
      "name": "WhiteSidingWindow",
      "normalTexture": {
        "index": 6
      },
      "pbrMetallicRoughness": {
        "baseColorTexture": {
          "index": 3
        },
        "metallicRoughnessTexture": {
          "index": 4
        }
      }
    },
    {
      "doubleSided": true,
      "name": "OldStreetLight",
      "normalTexture": {
        "index": 9
      },
      "pbrMetallicRoughness": {
        "baseColorTexture": {
          "index": 7
        },
        "metallicRoughnessTexture": {
          "index": 8
        }
      }
    }
  ],
  "meshes": [
    {
      "name": "defaultMaterial",
      "primitives": [
        {
          "attributes": {
            "NORMAL": 1,
            "POSITION": 0,
            "TANGENT": 2,
            "TEXCOORD_0": 3
          },
          "indices": 4,
          "material": 2,
          "mode": 4
        }
      ]
    },
    {
      "name": "defaultMaterial",
      "primitives": [
        {
          "attributes": {
            "NORMAL": 6,
            "POSITION": 5,
            "TANGENT": 7,
            "TEXCOORD_0": 8
          },
          "indices": 9,
          "material": 1,
          "mode": 4
        }
      ]
    },
    {
      "name": "defaultMaterial",
      "primitives": [
        {
          "attributes": {
            "NORMAL": 11,
            "POSITION": 10,
            "TANGENT": 12,
            "TEXCOORD_0": 13
          },
          "indices": 14,
          "material": 0,
          "mode": 4
        }
      ]
    }
  ],
  "nodes": [
    {
      "children": [
        1
      ],
      "matrix": [
        1.0,
        0.0,
        0.0,
        0.0,
        0.0,
        2.220446049250313e-16,
        -1.0,
        0.0,
        0.0,
        1.0,
        2.220446049250313e-16,
        0.0,
        0.0,
        0.0,
        0.0,
        1.0
      ],
      "name": "Sketchfab_model"
    },
    {
      "children": [
        2,
        4,
        6
      ],
      "matrix": [
        1.0,
        0.0,
        0.0,
        0.0,
        0.0,
        -4.371139006309477e-08,
        0.999999999999999,
        0.0,
        0.0,
        -0.999999999999999,
        -4.371139006309477e-08,
        0.0,
        0.0,
        0.0,
        0.0,
        1.0
      ],
      "name": "Collada visual scene group"
    },
    {
      "children": [
        3
      ],
      "name": "OldStreetLight"
    },
    {
      "mesh": 0,
      "name": "defaultMaterial"
    },
    {
      "children": [
        5
      ],
      "name": "WhiteSidingWindow"
    },
    {
      "mesh": 1,
      "name": "defaultMaterial"
    },
    {
      "children": [
        7
      ],
      "name": "StreepLampTop"
    },
    {
      "mesh": 2,
      "name": "defaultMaterial"
    }
  ],
  "samplers": [
    {
      "magFilter": 9729,
      "minFilter": 9987,
      "wrapS": 10497,
      "wrapT": 10497
    }
  ],
  "scene": 0,
  "scenes": [
    {
      "name": "Sketchfab_Scene",
      "nodes": [
        0
      ]
    }
  ],
  "textures": [
    {
      "sampler": 0,
      "source": 0
    },
    {
      "sampler": 0,
      "source": 1
    },
    {
      "sampler": 0,
      "source": 2
    },
    {
      "sampler": 0,
      "source": 3
    },
    {
      "sampler": 0,
      "source": 4
    },
    {
      "sampler": 0,
      "source": 5
    },
    {
      "sampler": 0,
      "source": 6
    },
    {
      "sampler": 0,
      "source": 7
    },
    {
      "sampler": 0,
      "source": 8
    },
    {
      "sampler": 0,
      "source": 9
    }
  ]
}
